<svg width="114" height="92" viewBox="0 0 114 92" fill="none" xmlns="http://www.w3.org/2000/svg">
<path d="M111.5 18.5871C107.061 11.0968 97.5363 6.56561 85.9771 6.56561C84.4051 6.56561 82.7405 6.56561 80.9836 6.84303C77.8395 7.21292 74.7878 7.86024 71.9212 8.6925C69.0545 3.51399 63.5061 0.0924734 57.3104 0C51.1147 0 45.6587 3.42152 42.6996 8.60002C39.7404 7.58282 36.5964 6.75056 33.3598 6.28819C31.048 5.9183 28.7361 5.82582 26.7017 5.82582C15.8823 5.82582 6.81991 10.0796 2.56614 17.2C-0.855379 22.9334 -0.855379 29.8689 2.56614 36.2496C5.8027 42.3528 10.0565 47.6238 14.6802 51.4152C13.478 52.155 12.3683 52.8948 11.5361 53.5421C9.50165 55.0217 8.57693 57.5184 8.94682 60.2002C9.87156 67.5056 20.2286 76.7529 33.5447 82.2088C37.4286 83.7809 41.22 84.5207 44.734 84.6131C47.5082 88.8669 52.1319 91.5486 57.3104 91.5486C62.7663 91.5486 67.5749 88.5895 70.2566 84.0583C73.5857 83.9658 77.0997 83.226 80.7986 81.7465C94.1148 76.2905 104.564 67.0432 105.581 59.7378C105.951 57.0561 105.027 54.6518 103.085 53.1722C102.252 52.5249 101.235 51.8776 100.126 51.1378C104.472 47.5313 108.356 42.8152 111.315 37.3592C114.736 31.1635 114.829 24.413 111.407 18.6796L111.5 18.5871ZM30.4931 34.2152C31.2329 34.2152 31.6028 34.4001 31.4179 34.6775C30.5856 35.3248 29.8458 35.7872 29.106 35.7872C29.106 35.7872 29.0135 35.7872 28.9211 35.7872C26.4243 34.8625 25.777 34.2151 25.6845 34.1227C25.4995 33.8453 25.1297 33.4754 24.9447 32.828C26.1469 33.6603 27.9038 34.2152 30.4931 34.2152ZM83.9427 34.2152C86.4395 34.2152 88.104 33.6603 89.3062 32.828C89.1212 33.4754 88.7513 33.8453 88.5664 34.1227C88.5664 34.1227 87.9191 34.8625 85.0524 35.8797C84.59 35.8797 83.7578 35.4173 82.6481 34.4001C82.6481 34.4001 83.018 34.2152 84.0352 34.2152H83.9427Z" fill="#C68F7F"/>
<path d="M107.338 35.0468C114.366 22.4704 102.622 9.24671 81.4459 11.4661C76.8222 12.0209 72.7534 13.0381 69.1469 14.4252C69.3319 15.2575 69.4243 16.0897 69.4243 16.922C69.4243 17.0145 69.4243 17.1994 69.4243 17.2919C77.0996 15.8123 86.5319 18.679 90.6932 23.8575C94.6696 28.6661 95.0394 33.2898 92.0803 36.9887C90.9706 38.4683 88.7513 39.393 86.9018 40.1328C84.3126 41.0575 82.0007 40.1328 79.7814 38.1909C78.0244 36.7113 77.377 35.0468 78.0243 33.1048C78.7641 30.8855 80.6136 29.4984 83.6652 29.4984C87.2717 29.4984 88.2889 28.2037 85.6997 25.4295C82.9254 22.3779 78.9491 22.1005 75.3426 22.5629C70.9964 23.1177 68.0372 25.4295 66.0028 28.0188C64.6157 29.7758 63.3211 31.5328 62.2114 33.3823C64.9856 40.2253 66.5577 47.3457 67.4824 54.3737C67.8523 57.7028 68.0372 61.0318 68.2222 64.2684C68.4071 67.9673 69.5168 69.1695 71.9211 68.1522C72.0136 66.5802 71.8286 65.2856 72.1061 63.8985C72.3835 62.5114 74.9727 60.8468 76.0824 61.1243C77.562 61.4942 78.3018 62.7888 78.1168 64.4533C78.0244 65.6555 77.4695 67.135 76.8222 68.2447C73.6781 72.8684 69.7942 74.348 67.6673 71.5738C66.0953 69.5393 64.8931 66.7651 64.0609 63.1587C63.2286 59.5522 62.2114 55.7608 61.0092 52.0619C59.8996 48.8253 58.605 45.6812 57.1254 42.5371C55.6458 45.6812 54.3512 48.8253 53.2415 52.0619C52.0393 55.7608 51.0221 59.5522 50.1899 63.1587C49.3576 66.7651 48.1555 69.5393 46.5834 71.5738C44.4565 74.348 40.5726 72.8684 37.4285 68.2447C36.7812 67.135 36.2264 65.7479 36.1339 64.4533C35.949 62.7888 36.6888 61.4017 38.1683 61.1243C39.278 60.8468 41.8673 62.5114 42.1447 63.8985C42.4221 65.1931 42.2371 66.5802 42.3296 68.1522C44.6415 69.1695 45.8436 67.9673 46.0286 64.2684C46.121 61.0318 46.306 57.7028 46.7684 54.3737C47.6931 47.3457 49.2652 40.2253 52.0394 33.3823C50.8372 31.5328 49.5426 29.7758 48.2479 28.0188C46.2135 25.3371 43.2544 23.1177 38.9081 22.5629C35.3017 22.1005 31.3253 22.4704 28.5511 25.4295C26.0543 28.2962 26.9791 29.5908 30.5855 29.4984C33.6372 29.4984 35.4866 30.793 36.2264 33.1048C36.8737 35.0468 36.2264 36.7113 34.4694 38.1909C32.3425 40.0403 29.9382 40.9651 27.3489 40.1328C25.407 39.4855 23.2801 38.4683 22.1705 36.9887C19.2113 33.3823 19.5812 28.6661 23.5575 23.8575C27.8113 18.494 37.521 15.7198 45.1963 17.2919C45.1963 17.1069 45.1963 16.922 45.1963 16.737C45.1963 15.9973 45.1963 15.165 45.3813 14.4252C41.6823 12.7607 37.4286 11.5585 32.7124 10.8188C11.536 7.76713 -0.485523 20.8059 6.63493 34.0296C11.1661 42.5371 17.4543 48.6404 23.4651 51.4146C19.6737 53.6339 16.2521 55.5759 14.3102 57.0554C10.7037 59.8296 18.7489 71.0189 35.2092 77.7695C39.8329 79.6189 43.9017 80.1738 47.3232 79.8039C46.8608 78.6942 46.6759 77.3996 46.6759 76.105C46.6759 70.2791 51.392 65.563 57.2178 65.4705C57.2178 65.4705 57.2178 65.6555 57.2178 65.7479C57.2178 65.7479 57.2178 65.563 57.2178 65.4705C57.2178 65.4705 57.2179 65.4705 57.3103 65.4705C63.2286 65.4705 67.9447 70.2791 67.9447 76.1974C67.9447 77.3071 67.7598 78.3243 67.4824 79.3415C70.719 79.7114 74.6953 79.0641 79.134 77.3996C95.5943 70.7415 103.824 59.4597 100.218 56.6855C98.461 55.2984 95.1319 53.3565 91.5255 51.2296C97.2588 48.2705 103.177 42.6296 107.338 34.9543V35.0468Z" fill="#7AC8C3"/>
<path d="M56.8466 22.8406C59.5283 19.604 63.6896 16.5524 69.1455 14.4255C68.0359 8.87711 63.1348 4.71581 57.309 4.71581C51.3907 4.71581 46.3971 8.96958 45.3799 14.518C50.4659 16.7373 54.3498 19.6965 56.9391 22.7481L56.8466 22.8406Z" fill="#7AC8C3"/>
<path d="M57.3126 71.2041C56.4803 76.0127 52.7814 79.2493 47.3254 79.8966C48.805 83.9654 52.6889 86.9246 57.3126 86.9246C62.1212 86.9246 66.19 83.7805 67.4846 79.4342C62.0287 78.8794 58.3298 75.7353 57.3126 71.2041Z" fill="#7AC8C3"/>
<path d="M57.1257 24.3202C58.3279 25.7073 59.2526 27.1869 60.0848 28.6665C65.3558 27.4643 69.2397 22.8407 69.4246 17.2923C68.5924 17.4772 67.6677 17.6622 66.8354 17.9396C62.5816 19.3267 59.4375 21.6385 57.0332 24.3202H57.1257Z" fill="#7AC8C3"/>
<path d="M53.7964 28.574C53.7964 28.574 53.9813 28.574 54.1663 28.574C54.9985 27.0944 55.9233 25.6149 57.1254 24.3202C54.8136 21.6385 51.6695 19.3267 47.3232 17.9396C46.5834 17.6622 45.8437 17.4772 45.1039 17.2923C45.2888 22.5632 48.8953 27.002 53.7964 28.4815V28.574Z" fill="#7AC8C3"/>
<path d="M60.0879 28.6665C59.1631 28.8514 58.2384 29.0364 57.2212 29.0364C56.1115 29.0364 55.0943 28.8514 54.1696 28.574C53.8922 29.0364 53.6147 29.5912 53.4298 30.0536C52.8749 31.1633 52.4126 32.273 51.9502 33.3826C53.8921 36.3418 55.5566 39.3934 57.0362 42.445C58.5158 39.3934 60.2728 36.3418 62.1223 33.3826C61.6599 32.273 61.1976 31.1633 60.6427 30.0536C60.4578 29.5912 60.1803 29.1289 59.9029 28.6665H60.0879Z" fill="#7AC8C3"/>
</svg>
