<svg width="108" height="99" viewBox="0 0 108 99" fill="none" xmlns="http://www.w3.org/2000/svg">
<path d="M4.34373 98.6027C1.91124 98.6027 0 96.6915 0 94.259V83.7472C0 81.3147 1.91124 79.4034 4.34373 79.4034H18.0699V38.6592C18.0699 36.2267 19.9812 34.3155 22.4137 34.3155H25.2805V13.2049H19.5468C17.1143 13.2049 15.2031 11.2937 15.2031 8.86122V4.34373C15.2031 1.91124 17.1143 0 19.5468 0H50.3004C51.6035 0 52.7329 0.521246 53.5148 1.38999C54.2967 0.521246 55.426 0 56.7292 0H87.4828C89.9153 0 91.8265 1.91124 91.8265 4.34373V8.86122C91.8265 11.2937 89.9153 13.2049 87.4828 13.2049H81.749V34.3155H84.6159C87.0484 34.3155 88.9597 36.2267 88.9597 38.6592V79.4034H102.686C105.118 79.4034 107.03 81.3147 107.03 83.7472V94.259C107.03 96.6915 105.118 98.6027 102.686 98.6027H4.16998H4.34373ZM46.0436 45.1748C37.1823 48.3023 30.9274 56.816 30.9274 66.546C30.9274 66.7197 30.9274 66.9803 30.9274 67.1541C33.1861 59.9435 38.7461 54.1229 46.0436 51.6904V45.0879V45.1748ZM61.1598 51.7773C68.4572 54.2098 74.1041 60.0304 76.276 67.241C76.276 67.0672 76.276 66.8066 76.276 66.6328C76.276 56.816 70.021 48.3892 61.1598 45.2617V51.8642V51.7773Z" fill="#749986"/>
<path d="M84.7897 83.7473V38.6593H77.5792V8.94821H87.6566V4.43073H56.903V39.7887C70.2817 41.3524 80.7066 52.733 80.7066 66.633C80.7066 81.5754 68.6311 93.651 53.6886 93.651C38.7462 93.651 26.6706 81.5754 26.6706 66.633C26.6706 52.8199 37.0956 41.4393 50.4743 39.7887V4.43073H19.7206V8.94821H29.7981V38.6593H22.5875V83.7473H4.51758V94.2591H103.033V83.7473H84.9635H84.7897ZM72.9748 74.191C72.9748 64.548 65.938 56.6424 56.8161 55.0786V62.0286H50.3874V55.0786C41.1787 56.6424 34.2287 64.548 34.2287 74.191C34.2287 84.8766 42.9162 93.5641 53.6018 93.5641C64.2873 93.5641 72.9748 84.8766 72.9748 74.191ZM53.6018 54.818C54.7311 54.818 55.7736 54.9049 56.8161 55.0786V39.7018C55.7736 39.6149 54.7311 39.5281 53.6018 39.5281C52.4724 39.5281 51.4299 39.5281 50.3874 39.7018V55.0786C51.4299 54.9049 52.4724 54.818 53.6018 54.818Z" fill="#9E604E"/>
</svg>
