<svg width="102" height="96" viewBox="0 0 102 96" fill="none" xmlns="http://www.w3.org/2000/svg">
<path d="M101.256 59.9062C100.1 55.0378 96.7997 51.6546 91.5187 49.8393C87.888 48.6016 84.0098 48.2715 79.6364 48.024C78.7288 48.024 77.9036 48.024 77.0785 48.024C77.9036 45.7135 78.5638 43.2381 79.1414 40.5976C79.3889 39.5249 78.8113 38.1221 77.9862 37.0494H86.2377C88.5481 37.0494 90.3635 35.2341 90.3635 32.9236C90.3635 24.177 87.1453 15.9255 81.3693 9.73682C75.5932 3.54816 67.5892 0 59.3377 0C57.0272 0 55.2119 1.81534 55.2119 4.12577V18.4835C55.2119 18.4835 54.8818 18.2359 54.7993 18.0709C54.0566 17.3282 52.5714 16.5856 51.4987 16.5856C51.2512 16.5856 51.0036 16.5856 50.8386 16.6681C50.6736 16.6681 50.426 16.5856 50.261 16.5856C48.5282 16.5856 47.4554 17.5758 46.5477 18.4835V4.20829C46.5477 1.89785 44.7324 0.0825153 42.422 0.0825153C34.1704 0.0825153 26.1665 3.63068 20.3904 9.81933C14.6143 16.008 11.3962 24.2595 11.3962 33.0062C11.3962 35.3166 13.2116 37.1319 15.522 37.1319H23.6085C22.7833 38.1221 22.3708 39.6074 22.6183 40.9276C23.1134 43.4856 23.7735 45.8786 24.5987 48.189C23.691 48.189 22.8659 48.189 21.9582 48.189C17.6674 48.4365 13.7066 48.7666 10.1585 50.0043C3.55725 52.2322 1.24681 56.6881 0.42166 60.0712C-0.898586 65.5172 0.91674 71.8709 5.37257 78.1421C10.6536 85.2384 18.9051 90.7669 28.7244 93.655C33.5929 94.9752 38.5438 95.7179 43.4122 95.7179C45.9702 95.7179 48.4456 95.4703 50.8386 95.1403C53.2315 95.4703 55.7895 95.7179 58.265 95.7179C63.1334 95.7179 68.0843 95.0577 73.0352 93.655C82.772 90.7669 91.0235 85.2384 96.3045 78.1421C100.76 71.9534 102.576 65.5172 101.256 60.0712V59.9062ZM50.9211 70.8807C49.6833 70.5507 48.4456 70.2206 47.1253 70.0556C47.4554 69.643 47.868 69.2304 48.033 68.6528C48.4456 66.6724 49.4358 64.9396 50.8386 63.2893C52.2413 64.9396 53.2315 66.6724 53.6441 68.6528C53.8091 69.2304 54.2217 69.7255 54.5517 70.1381C53.314 70.3856 52.0763 70.5507 50.9211 70.8807ZM48.9407 80.6176C48.9407 80.6176 48.6931 80.4525 48.6106 80.37C49.0232 80.1225 49.6008 79.8749 50.3434 79.6274C50.5085 79.6274 50.6736 79.5448 50.8386 79.4623C51.0036 79.4623 51.1686 79.5448 51.4162 79.6274C52.1588 79.8749 52.6539 80.1225 53.0665 80.37C52.9014 80.535 52.7364 80.6176 52.4889 80.7826C51.8287 81.2777 51.3337 81.6903 50.8386 82.0203C50.3435 81.6903 49.8484 81.2777 48.9407 80.6176ZM50.756 50.0869C50.756 50.0869 51.2512 50.2519 51.4987 50.3344C51.2512 50.3344 51.0036 50.4169 50.756 50.4994C50.5085 50.4994 50.261 50.4169 50.0134 50.3344C50.261 50.3344 50.5085 50.1694 50.756 50.0869ZM35.1606 64.4445C36.3984 65.7648 37.6361 67.0025 38.6263 67.9927C39.3689 68.7353 40.029 69.3129 40.3591 69.7255C40.3591 69.7255 40.4416 69.7255 40.5242 69.8905C39.2039 69.9731 37.8837 70.0556 36.7285 70.3031C32.9327 71.2108 30.4573 73.1912 29.3021 76.8218C29.137 77.7295 28.972 79.3798 29.5496 81.3602C27.0741 79.7924 26.0014 78.1421 25.9189 77.3994C25.9189 74.924 27.2392 72.2835 30.4573 68.9004C31.9425 67.3326 33.5103 65.8473 35.2432 64.527L35.1606 64.4445ZM72.21 76.1617C71.1373 73.1086 68.7444 71.1283 64.9487 70.3031C63.711 69.9731 62.3907 69.9731 61.0705 69.808C61.0705 69.808 61.153 69.808 61.2355 69.643C61.5655 69.2304 62.2257 68.6528 62.9684 67.9102C63.9585 67.0025 65.1137 65.7648 66.3515 64.527C68.0018 65.9298 69.7346 67.2501 71.2199 68.8178C74.438 72.201 75.7582 74.8415 75.7582 77.2344C75.7582 78.0596 74.603 79.7924 72.045 81.3602C72.6226 79.1323 72.4576 77.2344 72.21 76.0792V76.1617Z" fill="#B37642"/>
<path d="M42.3388 4.04324C35.2424 4.04324 28.3936 7.09631 23.2777 12.4598C18.1617 17.8233 15.4387 25.1672 15.4387 32.8411H42.3388V32.2635V4.04324Z" fill="#0CA2B9"/>
<path d="M59.3357 4.04324C66.432 4.04324 73.2808 7.09631 78.3967 12.4598C83.5127 17.8233 86.2357 25.1672 86.2357 32.8411H59.3357V32.2635V4.04324Z" fill="#0CA2B9"/>
<path d="M52.1606 45.1364C51.748 45.3839 51.2529 45.6315 50.7578 45.7965C52.3256 46.3741 54.0585 46.6217 55.8738 46.2916C58.3493 45.714 60.1646 44.4763 61.3198 43.0735C62.8876 44.2287 64.6204 45.2189 66.4358 46.044C65.3631 48.272 63.9603 50.4999 62.2274 52.5628C64.2078 52.3152 66.1057 52.1502 68.1686 52.0677C68.9937 52.0677 69.8189 52.0677 70.6441 52.0677C74.0272 46.2091 74.9348 40.1855 75.0998 39.5253C74.7698 39.2778 74.4398 39.0302 74.1097 38.7002C72.6244 39.5253 70.5615 39.6904 68.2511 39.0302C66.0232 38.4526 64.0428 37.2974 62.3925 35.8947C61.7324 35.317 61.2373 34.8219 60.7422 34.3269L60.4121 33.9968C59.917 33.4192 59.5044 32.9241 59.2569 32.5115C60.1646 34.4919 60.5772 36.2247 60.5772 37.71C60.5772 39.1953 60.1646 40.5155 59.422 41.4232C58.6793 42.3309 57.8541 42.9085 56.8639 43.156C55.7912 43.4036 54.8836 43.321 54.141 42.991C53.6459 43.8161 52.9032 44.4763 52.0781 45.0539L52.1606 45.1364Z" fill="#0CA2B9"/>
<path d="M58.6773 56.3587C58.2647 56.7713 57.8522 57.1014 57.3571 57.514C56.7795 57.1839 56.2844 56.8538 55.7068 56.6063C53.8089 56.8538 52.1586 57.2664 50.8384 58.0091C51.8286 58.5041 52.7362 59.1643 53.5614 60.0719C55.4593 62.1348 56.9445 64.6103 57.6872 67.7459C58.0172 66.8382 62.308 63.4551 66.1037 58.9167C65.9387 58.7517 65.7737 58.6692 65.5261 58.5041C63.4632 57.0189 61.2353 56.4413 58.7598 56.3587H58.6773Z" fill="#0CA2B9"/>
<path d="M45.7211 56.5233C45.7211 56.5233 45.8036 56.5233 45.8862 56.5233C47.619 55.6156 49.2693 55.038 50.7545 54.6254C47.949 53.8828 45.556 53.7178 43.9057 53.3052C42.3379 52.9751 40.8527 52.7276 39.3674 52.5625C40.4401 53.8828 41.5954 55.1205 42.9156 56.2757C43.8233 56.2757 44.7309 56.2757 45.7211 56.4408V56.5233Z" fill="#0CA2B9"/>
<path d="M68.3299 77.565C67.7523 75.8322 66.2671 74.842 64.0392 74.3469C61.8113 73.7693 59.5833 73.6868 57.1904 73.8518C54.9625 74.0993 52.8996 74.5119 50.9192 75.172C51.5793 75.4196 52.2395 75.5846 52.8996 75.8322C55.5401 76.8224 57.3554 78.0601 57.933 79.7104C58.1806 80.3705 58.0981 81.0306 57.603 81.6908C57.1079 82.2684 56.4478 83.0935 55.2926 83.9187C54.1373 84.7438 53.3122 85.404 52.8996 85.734C52.487 86.1466 52.157 86.6417 52.0745 87.2193C52.2395 87.9619 53.3947 88.6221 55.7876 88.9521C56.3652 89.0346 56.9429 89.1171 57.603 89.1171C58.0981 88.9521 58.5932 88.7871 59.0057 88.6221C66.3496 85.6515 69.0726 81.3607 68.4125 77.565H68.3299Z" fill="#0CA2B9"/>
<path d="M37.3877 88.7867C26.9908 86.4763 21.9573 81.5254 21.7923 77.4821C21.7098 73.4389 23.9377 69.8082 27.4034 66.095C30.1264 63.2069 32.9319 60.814 35.5724 58.9161C34.3347 57.4309 33.1795 55.8631 32.1893 54.2953C31.6942 53.6352 31.2816 52.8925 30.8691 52.1499C27.981 52.1499 25.0929 52.0674 22.1224 52.1499C18.2442 52.3974 14.531 52.645 11.3954 53.7177C7.84726 54.8729 5.20676 57.0183 4.29909 60.814C3.39142 64.6097 4.54661 69.8082 8.58987 75.5017C12.7982 81.2778 19.977 86.6413 29.7138 89.5294C37.3877 91.6748 44.6491 91.8398 50.7552 90.8496C48.3623 90.437 46.1344 89.8594 44.0715 89.1168C42.1737 89.2818 39.8632 89.1168 37.3053 88.7867H37.3877Z" fill="#0CA2B9"/>
<path d="M49.1891 40.6805C49.7667 38.6176 49.8493 36.0597 49.8493 33.0891C49.8493 31.7689 49.8493 30.6137 49.8493 29.6235C49.8493 28.6333 49.8493 27.6431 49.8493 26.6529C49.8493 26.4054 49.8493 26.1578 49.8493 25.9103C49.6842 26.4054 49.5192 26.9005 49.2717 27.4781C48.6941 28.9633 48.034 30.6962 47.3739 32.594C46.4662 35.3995 45.8885 37.875 46.2186 40.0204C46.3836 41.1756 46.7962 42.2483 47.3739 43.156C48.2815 42.7434 48.9416 41.9183 49.1891 40.763V40.6805Z" fill="#0CA2B9"/>
<path d="M51.6635 25.9924C51.6635 25.3323 51.6635 24.6721 51.6635 24.0945C51.6635 23.3519 51.6636 22.7743 51.7461 22.5267C51.7461 22.2792 51.9111 22.1142 51.9936 22.1142C52.0761 22.1142 52.2411 22.1142 52.4062 22.3617C52.5712 22.5267 52.8187 22.8568 52.9838 23.1869C53.1488 23.5169 53.3138 24.012 53.3964 24.5896C53.4789 25.1672 53.5614 25.5798 53.6439 25.8273C53.6439 26.0749 53.8089 26.4875 53.974 26.9826C54.304 27.8902 54.7166 28.5504 55.2942 29.0454C55.8719 29.5405 56.4494 29.6231 56.9445 29.293C57.4396 28.9629 57.6046 28.3853 57.4396 27.5602C57.1921 26.735 56.697 25.9099 56.0369 25.0847C55.1292 24.0945 54.2215 23.2694 53.4789 22.6092C52.7363 21.9491 52.2411 21.454 51.9111 21.124C51.581 20.7939 51.416 20.6289 51.2509 20.6289C51.1684 20.6289 51.0859 20.9589 51.0034 21.454C51.0034 21.8666 50.8384 22.4442 50.6733 23.1043C50.6733 23.2694 50.7559 23.5169 50.8384 23.7645C51.0034 24.4246 51.251 25.1672 51.581 25.9924H51.6635Z" fill="#0CA2B9"/>
<path d="M39.3687 52.6453C37.6359 50.5824 36.2331 48.3545 35.1604 46.1266C36.9758 45.3014 38.7086 44.3112 40.2764 43.156C41.4316 44.5588 43.2469 45.7965 45.7224 46.3741C47.5377 46.6217 49.2706 46.3741 50.8384 45.879C50.3433 45.714 49.8482 45.4664 49.4356 45.2189C48.6105 44.7238 47.8678 43.9812 47.3727 43.156C46.6301 43.4861 45.7224 43.5686 44.6497 43.321C43.6595 43.0735 42.8343 42.4959 42.0917 41.5882C41.3491 40.6805 41.019 39.4428 40.9365 37.875C40.9365 36.3897 41.3491 34.5744 42.2568 32.6766C42.0092 33.0066 41.7617 33.4192 41.3491 33.8318L40.7715 34.4919C40.2764 34.987 39.7813 35.4821 39.1212 36.0597C37.4709 37.4624 35.4905 38.5351 33.2625 39.1953C30.9521 39.8554 28.8892 39.6904 27.404 38.8652C27.0739 39.1128 26.7439 39.3603 26.4138 39.6078C26.5788 40.268 27.4865 46.2091 30.8697 52.1502C31.6948 52.1502 32.5199 52.1502 33.3451 52.1502C35.408 52.2327 37.3883 52.3977 39.2862 52.6453H39.3687Z" fill="#0CA2B9"/>
<path d="M50.7578 54.7083C52.3256 55.1209 53.9759 55.6985 55.6263 56.6062C55.6263 56.6062 55.7087 56.6062 55.7913 56.6062C56.7814 56.4412 57.6891 56.4412 58.5968 56.4412C59.917 55.2859 61.0722 54.0482 62.1449 52.728C60.6596 52.893 59.1744 53.1405 57.6066 53.4706C55.8738 53.8007 53.4808 54.0482 50.7578 54.7908V54.7083Z" fill="#0CA2B9"/>
<path d="M43.9906 67.663C44.7332 64.6099 46.2185 62.1344 48.1163 59.989C48.9415 59.0814 49.7667 58.4212 50.8394 57.9261C49.4366 57.1835 47.8688 56.7709 45.9709 56.5234C45.3933 56.7709 44.8982 57.101 44.3206 57.4311C43.9081 57.101 43.4129 56.6884 43.0004 56.2758C40.4424 56.2758 38.297 56.936 36.2341 58.4212C36.0691 58.5863 35.904 58.6688 35.6565 58.8338C39.4522 63.2896 43.743 66.7553 44.0731 67.663H43.9906Z" fill="#0CA2B9"/>
<path d="M97.2929 60.897C96.3852 57.1013 93.8272 54.9559 90.2791 53.8007C87.1435 52.728 83.4303 52.4805 79.552 52.2329C76.5815 52.0679 73.6935 52.0679 70.8054 52.2329C70.3929 52.9755 69.9802 53.6357 69.4852 54.3783C68.495 56.0286 67.3398 57.5964 66.1021 58.9992C68.8251 60.897 71.5481 63.29 74.3536 66.178C77.9018 69.8912 80.1297 73.5219 79.9646 77.5651C79.7996 81.6084 74.7662 86.5593 64.3692 88.8697C61.8113 89.2823 59.5833 89.3648 57.603 89.1998C55.5401 89.9424 53.3121 90.5201 50.9192 90.9326C57.1078 91.9228 64.2867 91.7578 71.9606 89.6124C81.6975 86.7243 88.8763 81.3608 93.0846 75.5848C97.1278 69.8912 98.2831 64.7752 97.3754 60.897H97.2929Z" fill="#0CA2B9"/>
<path d="M51.6648 29.706C51.6648 30.6962 51.6648 31.8514 51.6648 33.1716C51.6648 36.0597 51.8298 38.6176 52.3249 40.763C52.655 41.9183 53.2326 42.7434 54.1403 43.156C54.7179 42.2483 55.1305 41.2581 55.2955 40.0204C55.6256 37.875 55.048 35.3995 54.1403 32.594C53.4802 30.6136 52.82 28.9633 52.2424 27.4781C51.9949 26.9005 51.8298 26.4054 51.6648 25.9103C51.6648 26.1578 51.6648 26.4054 51.6648 26.6529C51.6648 27.6431 51.6648 28.6333 51.6648 29.6235V29.706Z" fill="#0CA2B9"/>
<path d="M37.6382 74.264C35.4103 74.7591 33.9249 75.7493 33.2648 77.4821C32.6047 81.2778 35.2452 85.5686 42.6716 88.5391C43.1667 88.7042 43.5793 88.8692 44.0744 89.0342C44.7345 89.0342 45.3121 88.9517 45.8897 88.8692C48.2002 88.5391 49.4379 87.879 49.6029 87.1364C49.6029 86.5588 49.1903 86.0637 48.7778 85.6511C48.3652 85.2385 47.54 84.6609 46.3848 83.8358C45.2296 82.9281 44.5695 82.1855 44.0744 81.6078C43.5793 80.9477 43.4968 80.2876 43.7443 79.6275C44.3219 77.9772 46.1373 76.7394 48.7778 75.7493C49.4379 75.5017 50.098 75.2542 50.7581 75.0891C48.6952 74.429 46.6323 74.0164 44.4869 73.7689C42.094 73.6039 39.8661 73.7689 37.6382 74.264Z" fill="#0CA2B9"/>
<path d="M50.7562 23.1043C50.5912 22.4442 50.4261 21.8666 50.4261 21.454C50.3436 20.9589 50.2611 20.6289 50.1786 20.6289C50.0961 20.6289 49.931 20.7939 49.5185 21.124C49.1884 21.454 48.6108 21.9491 47.9507 22.6092C47.2081 23.2694 46.3004 24.0945 45.3927 25.0847C44.7326 25.9099 44.2375 26.6525 43.9899 27.5602C43.7424 28.3853 43.9899 29.0454 44.485 29.293C44.9801 29.6231 45.5577 29.458 46.1354 29.0454C46.713 28.5504 47.1255 27.8902 47.4556 26.9826C47.6206 26.4875 47.7856 26.1574 47.7856 25.8273C47.7856 25.5798 47.8681 25.0847 48.0332 24.5896C48.1157 24.012 48.2807 23.5994 48.4458 23.1869C48.6933 22.7743 48.8584 22.5267 49.0234 22.3617C49.1884 22.1967 49.3535 22.1142 49.436 22.1142C49.5185 22.1142 49.601 22.2792 49.6835 22.5267C49.6835 22.8568 49.766 23.3519 49.766 24.0945C49.766 24.6721 49.766 25.2497 49.766 25.9924C50.0961 25.1672 50.3436 24.4246 50.5087 23.7645C50.5087 23.5169 50.5912 23.3519 50.6737 23.1043H50.7562Z" fill="#0CA2B9"/>
</svg>
