<svg width="102" height="99" viewBox="0 0 102 99" fill="none" xmlns="http://www.w3.org/2000/svg">
<path d="M101.102 88.4179C100.202 84.0829 99.1392 79.6661 97.9941 75.331C98.7302 73.368 99.221 71.3232 99.221 69.1966C99.221 63.8801 96.7672 59.0543 92.6776 55.7008L92.2686 54.0649C96.6036 50.7932 99.221 45.8039 99.221 40.242C99.221 31.9809 93.4137 25.0286 85.6434 23.2291C84.9891 17.34 84.5801 9.24257 84.5801 4.08963C84.5801 1.79944 82.7807 0 80.4905 0H62.7415C60.4513 0 58.6518 1.79944 58.6518 4.08963V31.0812H56.8524C55.2983 31.0812 53.9896 31.9809 53.3353 33.2078H48.1823C47.528 31.9809 46.2193 31.0812 44.6653 31.0812H42.7023V4.08963C42.7023 1.79944 40.9028 0 38.6126 0H20.8636C18.5734 0 16.774 1.79944 16.774 4.08963C16.774 22.6566 11.5392 42.9411 6.4681 62.4896C4.1779 71.4868 1.96952 79.9932 0.251869 88.4179C-0.157094 90.5445 1.15158 92.6711 3.27819 93.1618C18.8188 96.9243 34.6866 98.8055 50.6362 98.8055C66.5857 98.8055 82.4535 96.9243 97.9941 93.1618C100.121 92.6711 101.511 90.5445 101.02 88.4179H101.102ZM31.0059 70.2599V68.2151H34.6048V70.2599H31.0059ZM53.3353 47.3579C53.9896 48.5848 55.2983 49.4846 56.8524 49.4846H58.6518V60.0358H56.8524C55.2983 60.0358 53.9896 60.9355 53.3353 62.1624H48.1823C47.528 60.9355 46.2193 60.0358 44.6653 60.0358H42.7023V49.4846H44.6653C46.2193 49.4846 47.528 48.5848 48.1823 47.3579H53.3353ZM78.6092 31.572C79.5907 36.9703 80.8994 42.7776 82.6171 49.5664C82.2899 49.5664 81.9627 49.6481 81.7174 49.6481C80.0815 49.6481 78.6092 49.1574 77.3006 48.4213C78.2003 47.6851 78.7728 46.6218 78.7728 45.3949V35.1708C78.7728 33.944 78.2003 32.8806 77.3823 32.1445C77.7913 31.8991 78.2003 31.7355 78.691 31.572H78.6092ZM34.6048 41.3871H31.0059V39.3423H34.6048V41.3871ZM77.2188 61.0991C78.5275 60.363 80.0815 59.8722 81.6356 59.8722C83.026 59.8722 84.3347 60.2812 85.5616 60.8537L86.1342 62.9803C87.1975 66.8246 88.2608 70.5871 89.2423 74.4313C87.5246 76.9669 84.7437 78.521 81.6356 78.521C79.9997 78.521 78.5275 78.0302 77.2188 77.2941C78.1185 76.5579 78.691 75.4946 78.691 74.2677V64.0437C78.691 62.8168 78.1185 61.7535 77.2188 61.0173V61.0991ZM48.1823 76.3126H53.3353C53.3353 76.3126 53.4989 76.5579 53.5807 76.6397H48.0188C48.0188 76.6397 48.1824 76.3944 48.2642 76.3126H48.1823Z" fill="#A7D398"/>
<path d="M69.2028 45.4765H62.6594V64.207H69.2028C71.2476 59.2995 75.9916 55.8642 81.6353 55.8642C84.3345 55.8642 86.8701 56.6821 88.9967 58.0726C88.5059 56.1913 88.0152 54.3101 87.5244 52.5107C85.725 53.4104 83.7619 53.9012 81.6353 53.9012C75.9916 53.9012 71.2476 50.4659 69.2028 45.5583V45.4765Z" fill="#E99BB4"/>
<path d="M81.7171 26.9099C81.7171 26.9099 81.8807 26.9099 81.9625 26.9099C81.0628 20.8572 80.4902 10.306 80.4902 4.17152H62.823V35.2527H69.3664C71.4112 30.3452 76.1552 26.9099 81.7989 26.9099H81.7171Z" fill="#E99BB4"/>
<path d="M93.7398 75.1676C91.5314 79.5844 86.9511 82.6926 81.7163 82.6926C76.0726 82.6926 71.3286 79.2573 69.2838 74.3497H62.7404V80.7295H38.6934V74.3497H26.9152V64.1256H38.6934V45.3951H26.9152V35.171H38.6934V4.08983H21.0261C21.0261 31.654 9.90235 62.3262 4.42224 89.236C34.9309 96.6791 66.6665 96.6791 97.1751 89.236C96.1936 84.492 95.0485 79.8298 93.8216 75.1676H93.7398Z" fill="#E99BB4"/>
<path d="M95.1305 40.3237C95.1305 32.9624 89.2415 27.0733 81.9619 26.9097C83.2706 35.498 85.3154 44.0044 87.5238 52.429C92.0224 50.2206 95.1305 45.6402 95.1305 40.3237Z" fill="#E99BB4"/>
<path d="M44.6631 45.4768V43.2684H41.0643V37.3793H44.6631V35.2527H38.6923V45.4768H44.6631Z" fill="#E99BB4"/>
<path d="M74.5987 35.2527H69.2004C68.546 36.8067 68.2189 38.5244 68.2189 40.3238C68.2189 42.1233 68.546 43.8409 69.2004 45.395H74.5987V35.1709V35.2527Z" fill="#E99BB4"/>
<path d="M61.3505 43.2684H56.8519V45.4768H62.741V35.2527H56.8519V37.3793H61.3505V43.2684Z" fill="#E99BB4"/>
<path d="M56.8505 37.3792H44.6633V43.2683H56.8505V37.3792Z" fill="#E99BB4"/>
<path d="M95.1307 69.2777C95.1307 64.6156 92.6769 60.4441 89.078 58.0721C90.6321 63.7976 92.2679 69.5231 93.7402 75.2486C94.6399 73.4492 95.1307 71.4861 95.1307 69.2777Z" fill="#E99BB4"/>
<path d="M44.6631 72.2232H41.0643V66.2523H44.6631V64.1257H38.6923V74.3498H44.6631V72.2232Z" fill="#E99BB4"/>
<path d="M56.8519 64.1257V66.2523H61.3505V72.2232H56.8519V74.3498H62.741V64.1257H56.8519Z" fill="#E99BB4"/>
<path d="M74.5987 64.1258H69.2004C68.546 65.6799 68.2189 67.3975 68.2189 69.1969C68.2189 70.9964 68.546 72.714 69.2004 74.2681H74.5987V64.044V64.1258Z" fill="#E99BB4"/>
<path d="M56.8505 66.252H44.6633V72.141H56.8505V66.252Z" fill="#E99BB4"/>
</svg>
