<svg width="99" height="93" viewBox="0 0 99 93" fill="none" xmlns="http://www.w3.org/2000/svg">
<path d="M98.4485 61.8869C97.4078 56.5228 91.9636 53.3204 85.7189 49.5575C83.9575 48.5168 82.0361 47.3959 80.0346 46.0349C77.1524 44.3536 74.2702 42.4322 71.7083 40.4306H78.1932C80.4349 40.4306 82.1962 38.6693 82.1962 36.4276C82.1962 26.9004 79.234 17.8535 73.95 11.0484C68.5059 4.00303 60.82 0 52.9741 0C50.7324 0 48.9711 1.76133 48.9711 4.00303V11.929C48.9711 11.929 48.5707 11.929 48.3306 12.0892V4.56346C48.3306 2.32176 46.5692 0.560425 44.3275 0.560425C36.4015 0.560425 28.7957 4.56346 23.3516 11.6088C18.0676 18.414 15.1054 27.4608 15.1054 36.988C15.1054 39.2297 16.8667 40.9911 19.1084 40.9911H25.5133C23.3516 42.5923 21.0299 44.1134 18.548 45.5545C16.7866 46.6754 15.0253 47.7162 13.344 48.7569C7.25941 52.3597 1.49504 55.8023 0.214071 61.2464C-0.346354 63.8084 0.214074 66.4504 1.65517 69.0924C1.89535 77.4987 6.77909 85.1045 14.7051 89.2676C18.4679 91.1891 22.7112 92.2299 27.0344 92.2299C36.1614 92.2299 44.6477 87.6664 49.1311 80.2208C49.1311 80.1407 49.1312 80.0607 49.2913 79.9005C49.3714 80.1407 49.4514 80.3809 49.6116 80.6211C54.095 87.9867 62.5813 92.6302 71.7083 92.6302C76.0315 92.6302 80.2748 91.5894 84.0376 89.6679C92.0437 85.5048 96.9274 77.7389 97.0075 69.2525C98.5286 66.8507 99.1691 64.4488 98.6887 62.047L98.4485 61.8869ZM77.0724 55.482C81.9561 57.0833 85.3987 59.0848 86.7597 61.2464C87.8005 62.9277 88.3609 64.7691 88.6011 66.6905C88.6011 66.6905 88.521 66.8507 88.441 66.8507C87.16 68.0516 85.7189 69.0924 84.0376 69.973C84.0376 69.8129 84.0376 69.6528 84.0376 69.5727C84.8382 64.689 81.4757 60.2857 76.9923 55.482H77.0724ZM13.9845 69.4927C13.9845 69.4927 13.9846 69.893 14.1447 70.1331C12.5435 69.2525 11.1023 68.2117 9.98148 67.0908C9.90142 66.9307 9.82137 66.8507 9.74131 66.7706C9.98149 64.689 10.5419 62.6875 11.6628 60.8461C13.0238 58.6845 16.4664 56.6829 21.5102 55.0017C16.7867 59.8854 13.1839 64.4488 13.9845 69.5727V69.4927ZM47.9303 56.4428C47.53 55.2419 47.0496 54.2011 46.6493 53.1603C47.1297 50.2781 47.8502 47.2358 48.5707 44.1935C48.6508 43.7131 48.8109 43.2328 48.891 42.7524C48.971 43.2328 49.1312 43.6331 49.2112 44.1935C50.0118 47.7162 50.8925 51.6391 51.2928 54.7615C51.1327 55.1618 50.9725 55.6422 50.8124 56.0425C50.6523 56.0425 50.4922 56.0425 50.4121 56.0425C49.7717 56.2026 49.3713 56.5228 48.891 56.763C48.5707 56.6029 48.3305 56.4428 48.0103 56.3627L47.9303 56.4428Z" fill="#716146"/>
<path d="M60.4195 29.6224C58.0978 27.9411 56.4165 25.9396 55.0555 24.0182C54.0947 22.7372 53.3741 21.8565 52.8137 21.216V23.1375C52.8137 23.1375 53.214 23.858 53.3741 24.2583C54.5751 28.1813 57.4572 32.4245 61.14 36.3475H78.0328C78.0328 27.781 75.3909 19.5348 70.6673 13.4501C65.9437 7.36554 59.5388 3.92293 52.8137 3.92293V19.6949C53.9346 20.5755 55.1355 21.6964 56.5766 23.0574C60.5796 26.5 66.5842 32.1043 60.4195 29.5423V29.6224Z" fill="#0F7583"/>
<path d="M53.7748 36.4277H55.4561C54.2552 33.9458 53.2144 34.1059 53.7748 36.4277Z" fill="#0F7583"/>
<path d="M55.3757 34.346C54.3349 32.4245 53.5343 30.5831 52.8137 28.8218V31.4638C52.8137 31.4638 54.1747 32.8248 55.3757 34.2659V34.346Z" fill="#0F7583"/>
<path d="M44.1681 22.4174C43.7678 22.8977 43.3675 23.4581 42.8871 24.0986C41.5261 26.0201 39.8448 28.0216 37.523 29.7029C31.3584 32.2648 37.3629 26.6606 41.3659 23.218C42.4067 22.2572 43.2874 21.3766 44.1681 20.656V4.48376C37.443 4.48376 31.0381 7.92637 26.3145 14.011C21.591 20.0956 18.949 28.3418 18.949 36.9083H36.3221C40.0049 33.1455 42.727 29.2225 44.1681 25.3796V22.3373V22.4174Z" fill="#0F7583"/>
<path d="M43.689 36.8276C44.5697 33.9454 43.2888 33.7053 41.9277 36.8276H43.689Z" fill="#0F7583"/>
<path d="M44.1678 32.0246V31.144C43.8475 31.7845 43.6074 32.425 43.2871 33.0654C43.6074 32.6651 43.9276 32.3449 44.1678 32.0246Z" fill="#0F7583"/>
<path d="M43.687 62.0471C43.2867 61.1665 43.687 60.3659 44.968 60.1257C44.1674 57.7239 43.2867 55.5622 42.4061 53.6408C41.7656 57.884 41.8456 61.3266 43.607 62.0471H43.687Z" fill="#0F7583"/>
<path d="M40.4056 62.6069C36.7228 59.4045 38.1638 54.5208 40.2454 48.9166C39.8451 48.116 39.605 47.7157 39.605 47.7157C39.605 47.7157 37.2031 47.8758 33.6004 48.3561C23.9931 59.1643 10.3028 67.8909 23.0324 74.4559C21.5113 71.2535 26.395 70.6931 36.4826 72.5345C63.3029 78.539 21.191 84.4635 7.02027 69.8925C6.45985 69.252 5.97948 68.6115 5.57918 67.971C5.41906 75.0163 9.34203 81.9816 16.4674 85.6644C26.7953 91.0285 39.8451 87.5859 45.6095 78.1387C47.9313 74.2958 47.3709 68.5314 45.9298 63.0873C44.2485 63.5677 42.0068 63.6477 40.4056 62.687V62.6069Z" fill="#0F7583"/>
<path d="M53.9374 62.047C55.5386 61.4065 55.7788 58.6844 55.3785 55.2418C54.738 56.8431 54.0174 58.6044 53.377 60.3657C54.0174 60.766 54.2577 61.4065 53.9374 62.047Z" fill="#0F7583"/>
<path d="M91.1635 69.7328C75.3115 84.5441 34.961 78.2193 61.7012 72.3748C71.7889 70.5335 76.6726 71.0939 75.1514 74.2963C87.7209 67.8915 74.5109 59.2449 64.9037 48.6769C61.3009 48.1965 58.819 48.0364 58.819 48.0364C58.819 48.0364 58.4187 48.757 57.7783 50.0379C59.6197 55.482 60.6605 60.1256 57.2979 62.6075C55.9369 63.4081 54.0955 63.4881 52.5743 63.1679C51.0532 68.6921 50.4127 74.5365 52.8145 78.4595C58.5788 87.9867 71.6288 91.3492 81.9566 85.9852C89.2421 82.2223 93.1651 75.0969 92.8448 67.8915C92.3644 68.5319 91.804 69.0924 91.1635 69.7328Z" fill="#0F7583"/>
<path d="M51.4554 59.9651C48.0929 60.9258 49.8542 62.6071 52.5763 63.0875C52.8164 62.1267 53.1367 61.166 53.4569 60.2853C52.9766 60.0452 52.3361 59.885 51.4554 59.9651Z" fill="#0F7583"/>
<path d="M57.9399 41.5519C59.2209 42.5127 59.9414 42.8329 60.2616 42.7528C59.5411 41.632 58.9006 40.5111 58.4203 39.3903C57.7798 38.3495 57.1393 37.3888 56.5789 36.348H55.5381C55.5381 36.348 55.9384 37.2287 56.0985 37.709C56.4188 38.9099 56.9792 40.1909 57.9399 41.5519Z" fill="#0F7583"/>
<path d="M53.9341 36.8281C53.9341 36.8281 53.854 36.5078 53.774 36.3477H52.8132V31.464C48.2498 28.9821 54.3344 45.3946 55.3752 55.162C56.2558 53.0804 57.1365 51.239 57.777 50.0381C56.416 45.955 54.5746 41.3115 53.9341 36.8281Z" fill="#0F7583"/>
<path d="M43.6857 36.9081C43.1253 40.9911 41.5241 45.0742 40.1631 48.8371C40.7235 49.8779 41.5241 51.5592 42.4048 53.5607C43.8459 43.6331 49.0498 29.0621 44.8066 31.4639C44.6464 31.4639 44.4864 31.7041 44.1661 32.0243V36.9081H43.6057H43.6857Z" fill="#0F7583"/>
<path d="M37.8437 42.7523C38.2441 42.5922 38.8845 42.2719 39.6851 41.6315C40.6458 40.2704 41.2063 38.9895 41.5265 37.7886C41.6066 37.4683 41.7667 37.2281 41.8468 36.9879H41.1262C40.6458 37.7886 40.1655 38.6692 39.6051 39.4698C39.1247 40.5907 38.4842 41.7115 37.7637 42.7523H37.8437Z" fill="#0F7583"/>
<path d="M46.1689 59.9655C45.6886 59.9655 45.2883 59.9655 44.968 59.9655C45.2883 60.9262 45.6085 61.8869 45.8487 62.8477C48.0103 62.2072 49.1312 60.7661 46.1689 59.8854V59.9655Z" fill="#0F7583"/>
<path d="M52.8139 21.216V19.7749C50.8924 18.0936 49.5314 17.1329 49.2913 16.5724C49.5314 18.3338 50.4121 22.9773 52.8139 28.8217V23.1374C51.2927 20.2552 51.1326 19.2145 52.8139 21.216Z" fill="#0F7583"/>
<path d="M60.2617 42.7528C61.5427 44.7544 63.1439 46.7559 64.9052 48.6773C72.8312 49.7982 86.2014 52.6003 90.2044 59.0852C91.8857 61.8873 92.7664 64.8496 92.9265 67.8118C99.0911 59.8058 88.1228 56.0429 78.1153 49.3979C71.8705 45.7951 65.866 41.2317 61.3025 36.348H57.0593C59.221 39.3102 61.2224 42.5127 60.3418 42.7528H60.2617Z" fill="#0F7583"/>
<path d="M49.211 16.4124C49.211 16.4124 49.211 16.4924 49.2911 16.5725C49.131 15.6918 49.131 15.5317 49.211 16.4124Z" fill="#0F7583"/>
<path d="M55.3754 34.3462C55.6957 35.0667 56.096 35.7072 56.4963 36.4278H56.8966C56.3362 35.7072 55.8558 34.9867 55.2954 34.3462H55.3754Z" fill="#0F7583"/>
<path d="M33.5205 48.2765C35.1217 46.5152 36.5628 44.5937 37.8438 42.7523C36.0824 43.3928 38.0039 40.1103 40.2456 36.9879H36.3226C31.9993 41.3913 26.4751 45.5544 20.5506 48.8369C10.6231 55.3218 -0.425225 59.1648 5.49926 67.8914C5.57932 64.769 6.45996 61.6466 8.2213 58.7644C12.2243 52.1995 25.6746 49.3974 33.6006 48.3566L33.5205 48.2765Z" fill="#0F7583"/>
<path d="M44.1667 20.5756V22.337C47.2091 18.5741 46.8087 19.9352 44.567 24.2584C44.487 24.6587 44.3269 24.979 44.1667 25.3793V31.0636C47.2891 24.0983 48.3299 18.414 48.6501 16.4926C48.3299 17.133 46.6486 18.414 44.1667 20.5756Z" fill="#0F7583"/>
<path d="M48.7327 16.5725C48.7327 16.5725 48.7326 16.4924 48.8127 16.4124C48.8127 15.5317 48.8127 15.6918 48.7327 16.5725Z" fill="#0F7583"/>
<path d="M43.2884 32.9851C42.4078 34.0259 41.2869 35.467 40.2461 36.9081H41.1268C41.9274 35.547 42.5679 34.2661 43.2084 32.9851H43.2884Z" fill="#0F7583"/>
</svg>
