<svg width="122" height="79" viewBox="0 0 122 79" fill="none" xmlns="http://www.w3.org/2000/svg">
<path d="M103.028 20.7876C102.438 16.0689 100.374 11.8418 97.1299 8.49945C92.018 3.28929 84.3502 0.438446 75.5028 0.438446C74.7163 0.438446 73.9299 0.438446 73.34 0.438446C71.2756 0.438446 64.8858 0.635041 60.8553 1.42148C56.7265 0.536736 50.2384 0.438446 48.4689 0.438446C47.6824 0.438446 46.896 0.438446 46.0113 0.438446C37.1638 0.438446 29.3977 3.28929 24.3842 8.49945C21.1401 11.7435 19.174 15.8723 18.4859 20.7876C7.0825 23.9333 0.00454434 32.4859 0.00454434 43.5943C-0.192066 56.6689 6.00115 58.7333 16.6181 59.5197C16.6181 60.5028 16.6181 61.3875 16.6181 62.2723C17.4045 76.5265 25.3672 77.018 38.6384 77.8044C40.8011 77.9028 43.2587 78.0994 46.3062 78.296H50.9265C54.6621 78.296 58.2994 78.296 60.1672 78.0011C62.8214 78.1977 66.4587 78.296 70.1943 78.296H75.1095C77.8621 78.0011 80.3197 77.9028 82.4824 77.8044C95.7536 77.018 103.716 76.6248 104.503 62.4689C104.503 61.5841 104.601 60.6011 104.503 59.618C115.12 58.9299 121.313 56.7672 121.116 43.7909C121.116 32.6825 114.038 24.1299 102.832 20.9842L103.028 20.7876ZM50.2384 57.9468C50.9265 57.7502 51.5163 57.4553 52.1062 57.2587C53.2858 59.618 55.0553 61.4858 57.6113 61.4858C58.2994 61.4858 58.9875 61.2892 59.6757 60.9943C61.3468 60.3062 62.1333 59.0282 62.6248 57.7502C63.3129 58.5367 64.296 59.3231 65.6723 59.4214C66.0655 59.4214 66.4587 59.5197 66.8519 59.5197C68.2282 59.5197 69.8011 58.9299 71.079 57.9468C71.2756 59.1265 71.374 60.2079 71.374 61.2892C71.1773 64.9265 70.4892 66.2045 70.4892 66.3028C69.9977 66.4994 67.7367 67.3841 61.0519 67.8756C53.8757 67.3841 51.5163 66.5977 51.2214 66.5977C51.0248 66.3028 50.3367 65.0248 50.0418 61.3875C50.0418 60.2079 50.0418 59.0282 50.3367 57.8485L50.2384 57.9468ZM68.818 16.8554C69.8011 17.8384 69.8011 18.5265 69.8011 18.8215C69.8011 19.4113 69.4079 21.7706 65.1807 25.7028C65.1807 25.7028 61.2485 27.7672 60.8553 27.8655C58.6926 23.3435 55.5468 19.0181 51.418 18.9198C51.418 17.8384 51.9096 17.2486 52.4011 16.8554C54.1706 15.0859 57.7096 13.1198 60.6587 11.8418C63.6079 13.1198 67.0485 14.9876 68.818 16.8554Z" fill="#AFC0E3"/>
<path d="M81.992 42.2181C90.1513 43.1028 96.8361 47.3299 98.9988 54.8994C113.056 54.2113 116.595 54.0147 116.399 43.6926C116.399 32.9774 108.239 26.391 98.3106 24.9164C98.3106 24.7198 98.3106 24.6215 98.3106 24.4248C98.5073 11.252 86.5141 4.76385 73.3412 5.55029C69.6056 5.55029 63.609 5.84521 60.8565 6.63165C64.4937 7.90962 69.6056 10.6622 72.3581 13.4147C77.7649 18.8215 73.1446 25.3096 68.0327 29.8316C64.9853 31.3062 62.0361 32.9774 59.2836 34.2553C58.8904 33.9604 58.3988 33.6655 57.9073 33.3706C54.27 23.835 49.6497 21.2791 50.4361 26.9808C46.7988 22.852 44.6361 17.8384 49.0599 13.513C51.8124 10.7605 57.1209 8.10623 60.7581 6.72996C58.0056 5.94352 51.8124 5.6486 48.0768 5.6486C34.9039 4.86216 22.8124 11.3503 23.1074 24.5232C23.1074 24.7198 23.1074 24.8181 23.1074 25.0147C13.1785 26.4893 5.01924 33.0757 5.01924 43.7909C4.82263 54.113 8.36161 54.3096 22.4192 54.9977C24.4836 47.4282 31.1684 43.2011 39.426 42.3163C39.9175 42.3163 40.409 42.2181 40.9005 42.1198C31.7582 45.4621 30.8734 54.5062 33.4294 54.8011C33.626 54.9977 34.0192 55.096 34.4124 55.1943C32.5446 55.1943 30.4802 55.2926 28.5141 55.2926C26.3514 55.1943 24.3853 55.096 22.5175 54.9977C22.2226 56.1774 21.9277 57.5536 21.8294 58.9299C21.8294 60.0112 21.8294 60.9943 21.8294 61.9773C22.4192 73.5773 27.4328 71.9062 46.7005 73.2824C51.6158 73.3807 57.3175 73.2824 60.8565 72.9875C64.4937 73.2824 70.0971 73.3807 75.0124 73.2824C94.2801 71.8079 99.1954 73.479 99.8835 61.9773C99.8835 60.9943 99.8835 59.9129 99.8835 58.9299C99.8835 57.5536 99.5886 56.2757 99.1954 54.9977C97.3276 54.9977 95.3615 55.1943 93.1988 55.2926C91.0361 55.2926 88.8734 55.2926 86.9073 55.1943C86.9073 54.8994 86.7107 54.6045 86.514 54.3096C86.6124 54.3096 86.7107 54.3096 86.809 54.2113C89.5615 54.2113 88.5785 45.2655 75.5039 42.0214C76.0937 42.0214 76.6836 41.9231 77.2734 41.8248C78.9446 41.8248 80.5175 42.1197 82.0903 42.3163L81.992 42.2181ZM64.3954 43.9875C67.5412 47.9197 64.7887 47.4282 60.9548 44.774C57.809 48.018 55.2531 48.9028 57.3175 44.5774C54.4666 48.313 49.0599 41.3333 56.0395 41.235C48.3717 39.6621 52.4022 36.4181 59.3819 39.4655C58.3005 35.435 59.1853 35.3367 60.2666 39.3672C66.2632 34.8452 71.5717 37.696 64.7887 40.5469C71.0802 39.1706 70.392 41.4316 64.6903 41.4316C70.4903 41.5299 68.0327 46.9367 64.3954 43.8892V43.9875ZM91.6259 24.6215C93.8869 24.5232 96.0496 24.6215 98.114 24.9164C98.114 27.0791 97.8191 29.0452 97.4259 30.4215C96.8361 32.2893 96.2462 33.4689 94.87 34.2553C93.6903 34.9435 92.0191 35.3367 89.8564 35.5333C90.2496 32.6825 89.07 29.1435 86.514 27.8655C86.1208 27.5706 85.6293 27.2757 85.1378 27.0791C85.6293 26.391 86.1208 25.7028 86.514 25.0147C88.1852 24.8181 89.8564 24.7198 91.7242 24.7198L91.6259 24.6215ZM23.9921 30.4215C23.5989 29.0452 23.304 27.0791 23.304 24.9164C25.3684 24.6215 27.5311 24.5232 29.7921 24.6215C31.5616 24.6215 33.3311 24.7198 35.0022 24.9164C36.4768 27.6689 38.8361 30.1265 41.7853 32.3876C34.9039 30.1265 28.7107 28.357 27.0395 31.1096C26.3514 32.0926 26.3514 33.2723 26.7446 34.2553C26.7446 34.2553 26.6463 34.2553 26.548 34.2553C25.1718 33.4689 24.5819 32.3876 23.9921 30.4215ZM76.192 61.7807C75.8971 65.9096 75.0124 68.5638 73.8327 69.9401C72.6531 71.6112 66.8531 72.496 60.6598 72.8892C54.3683 72.496 48.6666 71.6112 47.487 69.9401C46.3073 68.5638 45.4226 65.9096 45.1277 61.7807C44.9311 59.2248 45.4226 56.5706 46.3073 54.113C50.731 52.9333 54.5649 50.9672 54.7616 48.7062C55.1548 53.5231 57.5141 56.8655 57.7107 56.5706C58.9887 56.0791 57.3175 51.3604 60.6598 48.1163C65.5751 49.6892 65.1819 54.5062 66.7548 54.7028C67.3446 54.8011 70.687 53.3265 70.5886 47.7231C71.0802 49.8858 72.5547 51.4587 74.4225 52.5401C75.7988 55.3909 76.3886 58.635 76.2903 61.6824L76.192 61.7807Z" fill="#FEEABA"/>
</svg>
