<svg width="74" height="96" viewBox="0 0 74 96" fill="none" xmlns="http://www.w3.org/2000/svg">
<path d="M20.1733 95.4788C19.0359 95.4788 18.0183 94.8802 17.5394 93.8625C17.5394 93.8625 17.5394 93.8027 17.5394 93.7428C17.0605 94.7604 16.0428 95.4788 14.8456 95.4788H2.99306C1.31695 95.4788 0 94.1618 0 92.4857V88.7144C0 88.7144 0 88.475 0 88.3553C0 88.2356 0 88.1158 0 87.9961V19.8739C0 19.8739 0 19.6345 0 19.5148C0 19.3951 0 19.2753 0 19.1556V3.65154C0 1.97542 1.31695 0.658472 2.99306 0.658472H14.4865C16.1626 0.179582 17.8387 0 19.5148 0C29.2722 0 37.4133 7.24322 38.85 16.5816C39.2092 16.402 39.6282 16.2823 40.1071 16.2823H52.3786C53.1568 16.2823 53.8153 16.5816 54.3541 17.0605C54.8928 16.5816 55.5513 16.2823 56.3295 16.2823H56.8084C58.0655 12.93 61.298 10.5356 65.0692 10.5356C69.918 10.5356 73.8689 14.4864 73.8689 19.3352C73.8689 19.7542 73.809 20.1134 73.6294 20.4726L42.9206 93.6829C42.4417 94.7604 41.3641 95.5386 40.1669 95.5386H20.293L20.1733 95.4788ZM36.7548 85.3023C36.2759 82.7882 35.1386 80.4536 33.4625 78.4183L28.7334 85.3023H36.7548ZM11.7328 85.3023V76.0837C8.85947 78.3584 6.82421 81.6508 6.10588 85.3023H11.7328ZM26.8179 67.4637C28.7334 67.9426 30.5891 68.7208 32.2652 69.7384L33.0435 68.6011V22.448H26.8179V67.5235V67.4637ZM42.9804 54.1745L49.3257 45.0157V33.6421C48.787 33.7019 48.1883 33.7618 47.6496 33.7618C46.0932 33.7618 44.477 33.5223 43.0403 32.9836V54.1745H42.9804ZM59.2627 30.649L65.0692 22.2684H61.8966C61.4776 24.3037 60.5796 26.2791 59.2627 27.9552V30.649ZM11.7328 16.4619V8.26085C8.97919 10.1764 6.94395 13.1096 6.16575 16.4619H11.7328Z" fill="#85CBBF"/>
<path d="M23.8235 69.918V72.073H19.8727V69.7982C18.0768 69.9778 16.4007 70.337 14.7845 70.9955V88.2954H23.0453L33.0422 73.8089C30.4681 71.7138 27.2955 70.337 23.8235 69.8581V69.918ZM2.87207 88.2954V87.9362C2.87207 87.9362 2.87207 88.1757 2.87207 88.2954ZM2.87207 19.4549V19.0957C2.87207 19.0957 2.87207 19.3352 2.87207 19.4549ZM19.3938 19.4549H19.8128V9.87707H23.7637V19.4549H35.9155C35.9155 10.356 28.4328 2.87331 19.3339 2.87331C17.7177 2.87331 16.1613 3.11275 14.6648 3.53178V19.395H19.3339L19.3938 19.4549ZM59.1417 19.2753H56.2683V26.9375C58.0642 24.9023 59.2015 22.2085 59.2015 19.3352L59.1417 19.2753ZM52.2576 29.8109V19.2154H39.9861V27.8953C42.0213 29.6912 44.7151 30.7687 47.5885 30.7687C49.2646 30.7687 50.821 30.4095 52.2576 29.751V29.8109ZM59.2015 19.2753H70.7548C70.7548 16.1026 68.1209 13.4688 64.9483 13.4688C61.7756 13.4688 59.2016 16.0428 59.1417 19.2154L59.2015 19.2753ZM14.7246 70.9955V19.395H2.87207V87.9362C3.05165 80.274 7.96026 73.6892 14.7246 70.9955ZM2.87207 92.4857H14.7246V88.2954H2.87207V92.4857ZM14.7246 3.53178H2.87207V19.0359C3.05165 11.7328 8.02012 5.5072 14.7246 3.53178ZM19.8128 69.7982C20.3516 69.7982 20.8903 69.7384 21.4291 69.7384C22.2073 69.7384 23.0453 69.7982 23.8235 69.918V19.4549H19.8727V69.8581L19.8128 69.7982ZM39.9861 27.8953C37.5317 25.7403 36.0352 22.6275 36.0352 19.2154V69.5588L39.9861 63.8121V27.9552V27.8953ZM56.2683 40.2267V26.8777C55.1908 28.1348 53.8141 29.0925 52.3175 29.8109V45.9734L56.2683 40.2267ZM56.2683 40.2267V53.7554L70.7548 19.2154L56.2683 40.1669V40.2267ZM52.2576 45.9734L39.9861 63.7522V76.6224H36.0352V69.4989L33.0422 73.8089C37.2923 77.221 40.0459 82.429 40.0459 88.2954H23.0453L20.172 92.4857H40.0459L56.2683 53.8751H52.3175V45.9734H52.2576Z" fill="#F29A76"/>
</svg>
