<svg width="107" height="98" viewBox="0 0 107 98" fill="none" xmlns="http://www.w3.org/2000/svg">
<path d="M92.5441 97.3138C87.1619 97.3138 80.3907 93.9282 73.2723 87.7647C67.1956 90.0217 60.9453 91.1503 54.6082 91.1503H53.0456C46.1009 91.1503 39.7638 90.0217 33.6871 87.7647C26.5687 93.9282 19.7107 97.3138 14.4153 97.3138C10.4221 97.3138 7.21011 95.4908 5.73435 92.192C3.47729 87.3306 5.30029 80.4727 10.9429 72.6598C9.29353 70.9236 7.73097 69.1006 6.34201 67.3644C-5.2905 51.3914 1.65426 42.0159 6.86285 37.9359C10.2484 35.6788 13.3736 33.335 16.3251 31.0779C7.0365 21.0948 3.04327 11.8061 5.56076 5.55584C6.94971 2.08345 10.2485 0 14.4153 0C21.3601 0 30.4751 5.55583 39.7638 15.3653C44.4515 13.3687 48.8788 12.4138 53.4797 12.4138C58.0806 12.4138 62.5948 13.3687 67.1957 15.3653C76.4843 5.55583 85.5993 0 92.5441 0C96.711 0 100.01 2.08345 101.399 5.55584C103.916 11.8061 99.9229 21.0948 90.6343 31.0779C93.7594 33.5086 96.711 35.6788 99.7493 37.6754C105.218 42.1027 112.163 51.3914 100.617 67.3644C99.2285 69.1874 97.6659 71.0104 96.0165 72.7466C101.659 80.5595 103.482 87.4174 101.225 92.2788C99.6625 95.4908 96.5374 97.4006 92.5441 97.4006V97.3138ZM35.7705 73.6147C40.5451 68.2325 45.2328 61.8086 49.8337 54.4297C50.615 53.1276 52.0039 52.3463 53.4797 52.3463C54.9555 52.3463 56.3444 53.1276 57.1257 54.4297C61.7266 61.8954 66.5012 68.3193 71.1889 73.7015C71.3625 73.6147 72.2307 72.9202 72.2307 72.9202C74.0537 70.4027 75.269 67.4512 75.9635 64.4128C71.1021 60.3328 65.4595 56.3395 59.2092 52.4331C57.907 51.6518 57.1257 50.2629 57.1257 48.7871C57.1257 47.3113 57.8202 46.0092 59.0355 45.1411C57.5598 44.8807 56.1708 44.707 54.695 44.707C54.3478 44.7938 53.9138 44.8807 53.5665 44.8807C53.1325 44.8807 52.6116 44.8806 52.1776 44.707C50.7018 44.707 49.226 44.8807 47.8371 45.1411C49.0524 45.9224 49.7469 47.3113 49.7469 48.7003C49.7469 50.0892 48.9656 51.565 47.6635 52.3463C41.4132 56.2527 35.7705 60.246 30.9092 64.326C31.5169 67.3644 32.819 70.2291 34.642 72.8334C34.642 72.8334 35.5101 73.5279 35.6837 73.6147H35.7705ZM29.607 31.6856C30.9092 32.8141 32.2113 33.8558 33.6003 34.9843C35.9441 33.0745 38.5484 31.5119 41.3263 30.3834C40.1978 28.9077 38.9825 27.4319 37.8539 26.0429C35.1628 27.6055 32.4718 29.5153 29.607 31.7724V31.6856ZM65.8067 30.3834C68.5846 31.5119 71.1889 33.0745 73.5327 34.9843C74.9217 33.8558 76.2238 32.8141 77.526 31.6856C74.6613 29.5153 71.9702 27.6055 69.2791 25.9561C68.1506 27.3451 66.9352 28.8208 65.8067 30.2966V30.3834Z" fill="#A87569"/>
<path d="M79.6091 51.565C80.7377 52.6935 81.6926 53.822 82.4739 54.9506C86.1199 59.8987 86.9011 63.892 85.4254 67.1039C87.2484 68.9269 88.811 70.6631 90.1999 72.3125C92.9778 69.795 95.3217 67.1908 97.1447 64.7601C104.784 54.2561 104.089 46.6168 97.4051 41.2346C92.7174 38.1095 88.3769 34.7239 84.1232 31.4251C81.0849 34.3767 77.4388 37.415 73.1852 40.627C76.1367 43.6653 78.307 47.3981 79.6091 51.565ZM53.4794 32.2064C55.2156 32.2064 56.9517 32.38 58.6879 32.7273C61.9867 28.0395 65.1987 23.9595 68.237 20.4871C63.5493 18.0564 58.7748 16.5807 53.4794 16.5807C48.184 16.5807 43.4095 18.0564 38.7217 20.4871C41.7601 23.9595 44.972 27.9527 48.2708 32.7273C49.9202 32.38 51.6564 32.2064 53.4794 32.2064ZM24.4849 54.8638C25.2662 53.822 26.3079 52.6935 27.3496 51.4782C28.6518 47.3113 30.8221 43.6653 33.7736 40.5401C29.5199 37.3282 25.8739 34.2899 22.8355 31.3383C18.5819 34.6371 14.2414 38.0227 9.55366 41.1478C2.8693 46.53 2.17482 54.0825 9.81407 64.6733C11.6371 67.1039 13.9809 69.7082 16.7588 72.2257C18.1478 70.5763 19.7104 68.8401 21.5334 67.0171C20.0576 63.8052 20.8389 59.8987 24.4849 54.8638ZM55.0419 86.8098C60.7714 86.3757 65.7195 83.2506 70.7545 79.4309C65.3723 73.8751 59.5561 66.3227 53.4794 56.6868C47.4895 66.4095 41.5865 73.8751 36.2042 79.4309C41.2392 83.2506 46.1873 86.2889 51.9168 86.8098C45.6665 86.4625 39.9371 84.0318 35.5098 80.1254C34.5548 81.0803 33.6868 81.9484 32.8187 82.7297C38.8085 85.334 45.5797 86.8966 53.0453 86.8098C52.8717 86.8098 52.6981 86.8098 52.4376 86.8098C52.6981 86.8098 52.9585 86.8098 53.219 86.8098C53.219 86.8098 53.3926 86.8098 53.4794 86.8098C53.4794 86.8098 53.653 86.8098 53.7398 86.8098C54.0002 86.8098 54.2607 86.8098 54.5211 86.8098C54.3475 86.8098 54.1739 86.8098 53.9134 86.8098C61.2923 86.8966 68.1502 85.2472 74.1401 82.7297C73.272 81.9484 72.3171 80.9935 71.449 80.1254C67.0217 84.0318 61.2923 86.4625 55.0419 86.8098ZM53.4794 86.8966C53.4794 86.8966 53.3058 86.8966 53.219 86.8966C53.219 86.8966 53.0453 86.8966 52.9585 86.8966C53.1322 86.8966 53.2189 86.8966 53.3925 86.8966H53.4794ZM53.4794 86.8966C53.4794 86.8966 53.7398 86.8966 53.9134 86.8966C53.9134 86.8966 53.7398 86.8966 53.653 86.8966C53.653 86.8966 53.4794 86.8966 53.3925 86.8966H53.4794ZM61.5527 48.6135C69.2787 53.388 75.6158 58.0757 80.6508 62.503C80.7376 61.5481 80.8245 60.5064 80.8245 59.5515C80.8245 56.7736 80.3904 54.0825 79.6091 51.565C76.8312 48.7003 73.272 45.9224 68.9315 43.7521C66.5876 45.3147 64.157 46.9641 61.5527 48.6135ZM26.3947 62.503C31.5165 58.0757 37.7668 53.388 45.4929 48.6135C42.8886 46.9641 40.3711 45.3147 38.1141 43.7521C33.7736 45.9224 30.1275 48.7003 27.4364 51.565C26.6552 54.0825 26.2211 56.7736 26.2211 59.5515C26.2211 60.5932 26.2211 61.5481 26.3947 62.503ZM53.3058 40.1929C53.3058 40.1929 53.4794 40.4533 53.5662 40.5401C53.5662 40.4533 53.7398 40.2797 53.8266 40.1929C53.8266 40.1929 53.653 40.1929 53.5662 40.1929C53.5662 40.1929 53.3926 40.1929 53.3058 40.1929ZM68.237 20.4871C73.6192 23.265 78.8278 27.1715 84.21 31.4251C110.947 5.81625 94.5404 -8.94141 68.237 20.4871ZM22.8355 31.4251C28.2177 27.2583 33.4263 23.265 38.8085 20.4871C12.5051 -9.02822 -3.90187 5.72944 22.8355 31.4251ZM32.9054 82.7297C26.5683 80.0386 21.0993 76.219 16.7588 72.2257C0.525391 91.8447 12.4183 101.741 32.9054 82.7297ZM74.1401 82.7297C94.6272 101.828 106.52 91.8447 90.2867 72.2257C85.9462 76.219 80.4772 79.9518 74.1401 82.7297ZM21.5334 67.0171C22.141 68.3193 23.0091 69.4478 24.3113 70.4895C26.8288 72.1389 29.2595 73.9619 31.6033 75.7849C28.8254 71.9653 26.9156 67.4512 26.3947 62.503C24.6585 64.0656 23.0091 65.5414 21.5334 67.0171ZM75.4422 75.7849C77.7861 73.9619 80.13 72.1389 82.7343 70.4895C84.0364 69.4478 84.9045 68.3193 85.5122 67.0171C84.0364 65.5414 82.387 64.0656 80.6508 62.503C80.1299 67.4512 78.2201 71.9653 75.4422 75.7849ZM68.9315 43.7521C70.4073 42.7104 71.883 41.6687 73.272 40.627C69.4524 36.6337 64.4174 33.769 58.7748 32.7273C57.1254 35.0711 55.476 37.5886 53.8266 40.1929C59.4693 40.1061 64.591 41.4951 69.0183 43.6653L68.9315 43.7521ZM35.5966 80.1254C35.5966 80.1254 36.0306 79.6914 36.291 79.4309C34.7284 78.3024 33.1659 77.0871 31.6033 75.7849C32.8187 77.3475 34.1208 78.8233 35.5966 80.1254ZM71.449 80.1254C72.9248 78.8233 74.3137 77.3475 75.4422 75.7849C73.8797 77.0002 72.3171 78.2156 70.7545 79.4309C71.0149 79.6914 71.1886 79.9518 71.449 80.1254ZM53.3058 40.1929C51.6564 37.5018 50.007 34.9843 48.3576 32.7273C42.715 33.8558 37.68 36.6337 33.8603 40.627C35.2493 41.6687 36.6383 42.7104 38.2008 43.7521C42.6281 41.5819 47.7499 40.1929 53.3925 40.2797L53.3058 40.1929Z" fill="#5CA98F"/>
</svg>
