<svg width="108" height="99" viewBox="0 0 108 99" fill="none" xmlns="http://www.w3.org/2000/svg">
<path d="M107.625 41.7082C107.276 40.6589 106.401 39.6971 105.352 39.2599C92.9357 33.4015 79.7325 29.904 66.0921 28.505L66.879 10.4052C66.9665 7.6946 66.0047 5.07144 64.081 3.06035C62.1574 1.04927 59.6216 0 56.911 0H50.9652C48.2546 0 45.6315 1.1367 43.7953 3.06035C41.9591 4.984 40.9098 7.6946 40.9972 10.4052L41.7842 28.505C28.1438 29.904 14.9405 33.4015 2.52427 39.2599C0.338305 40.3092 -0.623517 42.8449 0.425746 45.0308C3.22378 50.9767 6.98363 56.7476 10.5686 62.2562C17.5637 73.0112 24.1216 83.154 24.1216 94.4336C24.1216 96.8819 26.0452 98.8055 28.4935 98.8055H48.9541C48.9541 98.8055 49.7411 98.6307 50.1783 98.4558C50.6155 98.4558 51.0527 98.6307 51.5773 98.6307C51.5773 98.6307 51.5773 98.6307 51.6647 98.6307C51.7522 98.6307 51.8396 98.6307 52.0145 98.6307C52.6265 98.6307 53.3261 98.7181 53.9381 98.7181C54.9874 98.7181 56.1241 98.4558 57.1734 98.3684C57.698 98.6307 58.3101 98.7181 58.9221 98.7181H79.3827C81.831 98.7181 83.7547 96.7945 83.7547 94.3462C83.7547 83.0666 90.3126 72.9237 97.3076 62.1688C100.893 56.6602 104.565 50.9767 107.451 45.0308C107.975 43.9816 107.975 42.7574 107.625 41.7082ZM53.0637 89.9742L51.9271 62.606C52.6266 62.5186 53.2386 62.2562 53.9381 62.2562C54.6376 62.2562 55.2497 62.5186 55.9492 62.606L54.8125 89.8868C54.8125 89.8868 54.2879 89.9742 53.9381 89.9742C53.6758 89.9742 53.3261 89.9742 53.0637 89.9742ZM42.9209 56.3978C42.4837 56.6602 42.0465 56.9225 41.6093 57.2722C42.0465 56.835 42.3962 56.3979 42.9209 56.0481V56.4853V56.3978ZM64.9554 56.3978V55.8732C65.9172 56.5727 66.7916 57.3597 67.666 58.2341C66.7916 57.622 65.9172 57.0099 64.9554 56.4853V56.3978ZM56.7362 43.8941C55.8618 43.8067 54.9 43.7193 54.0256 43.7193C53.1512 43.7193 52.1019 43.8067 51.1401 43.9816L50.7903 36.7242C51.8396 36.7242 52.8889 36.6368 53.9381 36.6368C54.9874 36.6368 56.0366 36.6367 57.0859 36.7242L56.8236 43.9816L56.7362 43.8941Z" fill="#93D2D3"/>
<path d="M30.8548 71.1752C30.8548 60.8574 37.675 52.0261 47.0309 49.0532L46.3314 32.3524C31.9915 33.3143 17.739 36.8993 4.44836 43.1948C12.4927 60.2454 28.5814 75.5471 28.5814 94.4338C35.4016 94.4338 42.2218 94.4338 49.042 94.4338V93.8217C38.7243 91.4609 30.9422 82.2799 30.9422 71.2626L30.8548 71.1752Z" fill="#FACEA7"/>
<path d="M61.5483 32.3522L60.8488 49.053C70.2921 51.9385 77.1998 60.7697 77.1998 71.1749C77.1998 82.2796 69.4178 91.5481 59.0126 93.8215V94.3461C65.8328 94.3461 72.653 94.3461 79.4732 94.3461C79.4732 75.4594 95.5619 60.2451 103.606 43.1072C90.3156 36.8116 76.0631 33.2266 61.7232 32.2648L61.5483 32.3522Z" fill="#FACEA7"/>
<path d="M61.5474 32.3522L62.5093 10.2303C62.6841 7.08248 60.061 4.37188 56.9132 4.37188H50.9674C47.8196 4.37188 45.1964 6.99504 45.3713 10.2303L46.3331 32.3522C51.4046 32.0025 56.5634 32.0025 61.6349 32.3522H61.5474Z" fill="#FACEA7"/>
<path d="M53.937 94.346C53.3249 94.346 52.6254 94.346 52.0133 94.2585C52.6254 94.2585 53.2375 94.346 53.937 94.346Z" fill="#FACEA7"/>
<path d="M46.9424 49.1404L47.3796 59.1085C49.3907 58.3215 51.5766 57.8843 53.9375 57.8843C56.2983 57.8843 58.3968 58.3215 60.4954 59.1085L60.9326 49.053C58.7466 48.3535 56.4732 48.0038 54.0249 48.0038C51.5766 48.0038 49.2158 48.3535 47.0298 49.053L46.9424 49.1404Z" fill="#FACEA7"/>
<path d="M48.8676 93.8215C49.9168 94.0838 50.9661 94.2587 52.0153 94.3461C50.9661 94.2587 49.9168 93.9964 48.8676 93.7341V93.9089V93.8215Z" fill="#FACEA7"/>
<path d="M53.9401 94.3465C55.6888 94.3465 57.3502 94.1716 58.9241 93.8219V93.647C57.3502 94.0842 55.6888 94.3465 53.9401 94.3465Z" fill="#FACEA7"/>
<path d="M72.2158 76.1591C72.2158 68.377 67.3192 61.7317 60.499 59.1086L59.0126 93.6468C66.6197 91.4608 72.2158 84.4657 72.2158 76.1591Z" fill="#FACEA7"/>
<path d="M35.6628 76.1591C35.6628 84.4657 41.2589 91.4608 48.8661 93.6468L47.3796 59.1086C40.5594 61.7317 35.6628 68.377 35.6628 76.1591Z" fill="#FACEA7"/>
</svg>
