<svg width="88" height="93" viewBox="0 0 88 93" fill="none" xmlns="http://www.w3.org/2000/svg">
<path d="M75.8731 49.5777C76.0149 48.5138 76.2277 47.4499 76.2277 46.386C76.2277 45.1094 76.0149 43.9036 75.8731 42.6269C76.4405 42.2723 77.0079 41.8467 77.5044 41.3502C88.8527 30.7822 88.6399 21.9163 86.4412 16.2422C82.5402 6.24154 69.4188 0.0709266 59.56 0.0709266C53.8858 0.0709266 49.7721 2.05687 47.8571 5.67413C46.5804 8.15656 46.6513 11.2064 47.7862 14.6109C46.5095 14.469 45.2328 14.3272 43.8852 14.3272C42.8213 14.3272 41.8283 14.54 40.7644 14.6109C42.112 10.9936 41.6865 8.22749 40.7644 6.31247C38.9203 2.34058 34.2392 0 27.9976 0C20.0538 0 9.69853 3.75911 4.37903 12.1285C1.47104 16.7387 -0.940445 24.4697 4.09535 35.3215C5.86851 39.0806 8.35094 41.563 11.6845 43.1234C11.5426 44.1873 11.4008 45.2512 11.4008 46.3151C11.4008 47.5918 11.6136 48.7975 11.7554 50.0742C11.188 50.4288 10.6206 50.8544 10.1241 51.3509C-1.22416 61.919 -1.01137 70.7848 1.18736 76.4589C5.08832 86.4596 18.2097 92.6302 28.0685 92.6302C33.7427 92.6302 37.8564 90.6443 39.7714 87.027C41.0481 84.5446 40.9772 81.4947 39.8424 78.0902C41.119 78.2321 42.3957 78.3739 43.7433 78.3739C44.8072 78.3739 45.8002 78.1612 46.7932 78.0902C45.4456 81.7075 45.8711 84.4736 46.7932 86.3177C48.6373 90.2896 53.3184 92.6302 59.489 92.6302C67.4328 92.6302 77.7881 88.8711 83.1076 80.5017C86.0156 75.8915 88.4271 68.1605 83.3913 57.3087C81.6182 53.5496 79.1357 51.0672 75.8022 49.5068L75.8731 49.5777ZM25.4443 82.204C25.4443 82.204 25.728 82.9842 25.9407 83.4097C23.3874 83.4097 21.6851 82.4877 20.4794 80.5727C18.5644 77.381 18.4934 72.2033 19.4864 67.4512C21.2596 69.4372 23.2455 71.1394 25.3733 72.6289C25.3024 72.7707 25.1605 72.8417 25.0187 72.9835C23.0327 76.0334 24.3804 79.5797 25.3733 82.1331L25.4443 82.204ZM25.657 11.0646C24.5931 13.6179 23.1746 17.1642 25.0896 20.2141C25.0896 20.2141 25.1605 20.2141 25.1605 20.3559C23.0327 21.8454 21.0468 23.6186 19.3446 25.6045C18.4225 21.4908 18.4225 17.0933 20.1248 13.9016C21.4014 11.561 23.4583 10.2134 26.0826 9.8588C25.9407 10.2844 25.728 10.7099 25.5861 11.0646H25.657ZM31.473 54.2589C33.9554 53.0531 35.7286 50.9253 36.6507 47.5918C36.8635 46.9534 36.7925 46.1732 36.6507 45.5349C35.5158 42.2014 33.5299 40.3573 31.2602 39.2934C31.8986 38.5841 32.5369 37.8039 33.1753 36.8109C34.8066 40.4282 36.9344 44.0455 39.5587 46.5279C36.9344 49.0812 34.7356 52.4148 33.0334 56.2448C32.5369 55.4646 32.0404 54.8263 31.5439 54.188L31.473 54.2589ZM62.1133 10.639C62.1133 10.639 61.8296 9.8588 61.6169 9.43324C64.1702 9.43324 65.8724 10.3553 67.0782 12.2703C68.9932 15.462 69.0641 20.6397 68.0711 25.3917C66.298 23.4058 64.312 21.7036 62.1842 20.2141C62.2552 20.0722 62.468 20.0013 62.5389 19.7885C64.5248 16.7387 63.1063 13.1924 62.1842 10.639H62.1133ZM56.0846 38.5841C53.6022 39.7898 51.829 41.9176 50.9069 45.2512C50.6941 45.9605 50.7651 46.6697 50.9069 47.3081C52.0417 50.6416 54.0277 52.4857 56.2974 53.4787C55.659 54.188 55.0206 54.9682 54.3823 55.9611C52.751 52.2729 50.6232 48.7266 47.9989 46.2442C50.6232 43.6908 52.822 40.3573 54.5242 36.5272C55.0207 37.3074 55.5172 37.9458 56.0136 38.5841H56.0846ZM61.9006 81.7784C62.9645 79.2251 64.383 75.6787 62.4679 72.6289C62.4679 72.6289 62.3971 72.6289 62.3971 72.487C64.5249 70.9976 66.5108 69.2244 68.213 67.2385C69.1351 71.3522 69.1351 75.7497 67.4328 78.9414C66.1562 81.2819 64.0993 82.6295 61.475 82.9842C61.6168 82.5586 61.8296 82.1331 61.9715 81.7784H61.9006Z" fill="#C0BE78"/>
<path d="M72.0432 51.9896C71.4758 54.6848 70.5537 57.3091 69.277 59.6497C74.1 68.5864 74.5965 85.3251 61.0495 86.5309C50.6943 86.4599 67.5748 73.4804 54.808 72.6292C54.5952 72.7002 54.3824 72.7711 54.1697 72.842C31.9696 98.8721 96.2292 93.1271 80.1288 58.7986C78.072 54.472 75.164 52.6989 71.9723 51.9187L72.0432 51.9896Z" fill="#8E9BB3"/>
<path d="M75.022 38.868C109.421 7.0219 32.3242 -11.3481 54.3115 20.0015C66.0144 19.1504 55.4462 10.0008 58.2124 6.31263C74.5255 3.05 74.3128 22.8385 69.206 32.981C70.5536 35.3926 71.4757 37.9459 72.0431 40.7121C73.107 40.3574 74.1 39.7191 75.022 38.868Z" fill="#8E9BB3"/>
<path d="M26.5061 6.31273C36.8614 6.38365 19.9808 19.3632 32.7476 20.2143C32.9604 20.1434 33.1732 20.0725 33.386 20.0016C55.586 -6.02851 -8.67352 -0.283454 7.42683 34.045C9.4837 38.3716 12.3917 40.1447 15.5834 40.9249C16.1508 38.2297 17.0729 35.6054 18.3495 33.2649C13.5265 24.3281 13.03 7.58941 26.577 6.38365L26.5061 6.31273Z" fill="#8E9BB3"/>
<path d="M12.5357 53.9753C-21.8637 85.8214 55.2336 104.191 33.2463 72.8418C21.5434 73.6929 32.1115 82.8424 29.3453 86.5306C13.0322 89.7933 13.245 70.0047 18.3517 59.8622C17.0041 57.4507 16.0821 54.8973 15.5146 52.1312C14.4507 52.4858 13.4578 53.1242 12.5357 53.9753Z" fill="#8E9BB3"/>
<path d="M54.311 46.1736C56.7935 53.6209 65.021 50.2873 72.0427 51.9896C72.3973 50.2164 72.6101 48.3014 72.6101 46.4573C72.6101 44.6132 72.3973 42.5563 72.0427 40.7122C65.2337 43.1947 56.8644 37.095 54.311 46.2445V46.1736Z" fill="#8E9BB3"/>
<path d="M32.6779 20.2144C26.5073 22.7677 21.4006 27.378 18.2798 33.1939C22.2517 40.5703 29.2025 42.6981 33.5999 26.3141C34.3801 31.7754 38.352 41.9179 43.6006 45.5352C49.5584 41.0668 52.821 33.123 54.0977 26.0304C58.7789 42.6272 65.3041 40.4994 69.1342 32.9812C64.2402 24.1153 54.7361 18.0866 43.7425 18.0866C40.0543 18.0866 36.5079 18.7958 33.2453 20.0725C33.1744 20.1434 33.1034 20.2144 33.0325 20.3562C32.8907 20.3562 32.7488 20.3562 32.6069 20.3562L32.6779 20.2144Z" fill="#8E9BB3"/>
<path d="M33.2483 46.67C30.7658 39.2227 22.5384 42.5562 15.5166 40.854C15.162 42.6272 14.9492 44.5422 14.9492 46.3863C14.9492 48.2304 15.162 50.2872 15.5166 52.1313C22.3256 49.6489 30.6949 55.7486 33.2483 46.5991V46.67Z" fill="#8E9BB3"/>
<path d="M54.8769 72.6291C61.0476 70.0757 66.1543 65.4655 69.275 59.6495C65.3032 52.2731 58.3524 50.1453 53.9549 66.5294C53.1747 61.068 49.2028 50.9255 43.9543 47.3083C37.9964 51.7766 34.7338 59.7204 33.4571 66.8131C28.776 50.2163 22.2507 52.3441 18.4207 59.8623C23.3146 68.7281 32.8188 74.7569 43.8124 74.7569C47.5006 74.7569 51.0469 74.0476 54.3096 72.7709C54.3805 72.7 54.4514 72.6291 54.5223 72.4872C54.6642 72.4872 54.806 72.4872 54.9479 72.4872L54.8769 72.6291Z" fill="#8E9BB3"/>
<path d="M44.0263 45.819C44.0263 45.819 43.7426 45.6062 43.6007 45.5353C43.6007 45.5353 43.6007 45.5353 43.5298 45.5353V47.0957C43.5298 47.0957 43.8135 47.3085 43.9554 47.3794C43.9554 47.3794 43.9553 47.3794 44.0263 47.3794V45.819Z" fill="#8E9BB3"/>
</svg>
